<mxfile host="app.diagrams.net" agent="Mozilla/5.0 (Windows NT 10.0; Win64; x64) AppleWebKit/537.36 (KHTML, like Gecko) Chrome/130.0.0.0 Safari/537.36 Edg/130.0.0.0" version="24.8.4">
  <diagram name="第 1 页" id="nC8UvTGnPyPqz9m-DXKU">
    <mxGraphModel dx="1413" dy="768" grid="1" gridSize="10" guides="1" tooltips="1" connect="1" arrows="1" fold="1" page="1" pageScale="1" pageWidth="827" pageHeight="1169" math="0" shadow="0">
      <root>
        <mxCell id="0" />
        <mxCell id="1" parent="0" />
        <mxCell id="N1LNzaaKZzpykQplVJVi-3" style="edgeStyle=orthogonalEdgeStyle;rounded=0;orthogonalLoop=1;jettySize=auto;html=1;" parent="1" source="N1LNzaaKZzpykQplVJVi-1" target="N1LNzaaKZzpykQplVJVi-2" edge="1">
          <mxGeometry relative="1" as="geometry" />
        </mxCell>
        <mxCell id="N1LNzaaKZzpykQplVJVi-1" value="" style="points=[[0.145,0.145,0],[0.5,0,0],[0.855,0.145,0],[1,0.5,0],[0.855,0.855,0],[0.5,1,0],[0.145,0.855,0],[0,0.5,0]];shape=mxgraph.bpmn.event;html=1;verticalLabelPosition=bottom;labelBackgroundColor=#ffffff;verticalAlign=top;align=center;perimeter=ellipsePerimeter;outlineConnect=0;aspect=fixed;outline=standard;symbol=general;" parent="1" vertex="1">
          <mxGeometry x="60" y="110" width="50" height="50" as="geometry" />
        </mxCell>
        <mxCell id="N1LNzaaKZzpykQplVJVi-2" value="Receives an order from a customer" style="points=[[0.25,0,0],[0.5,0,0],[0.75,0,0],[1,0.25,0],[1,0.5,0],[1,0.75,0],[0.75,1,0],[0.5,1,0],[0.25,1,0],[0,0.75,0],[0,0.5,0],[0,0.25,0]];shape=mxgraph.bpmn.task;whiteSpace=wrap;rectStyle=rounded;size=10;html=1;container=1;expand=0;collapsible=0;taskMarker=abstract;" parent="1" vertex="1">
          <mxGeometry x="170" y="95" width="120" height="80" as="geometry" />
        </mxCell>
        <mxCell id="63c5QIzw94qShJxjwjrr-2" style="edgeStyle=orthogonalEdgeStyle;rounded=0;orthogonalLoop=1;jettySize=auto;html=1;" edge="1" parent="1" source="N1LNzaaKZzpykQplVJVi-4" target="63c5QIzw94qShJxjwjrr-1">
          <mxGeometry relative="1" as="geometry" />
        </mxCell>
        <mxCell id="N1LNzaaKZzpykQplVJVi-4" value="Check Stock Availability" style="points=[[0.25,0,0],[0.5,0,0],[0.75,0,0],[1,0.25,0],[1,0.5,0],[1,0.75,0],[0.75,1,0],[0.5,1,0],[0.25,1,0],[0,0.75,0],[0,0.5,0],[0,0.25,0]];shape=mxgraph.bpmn.task;whiteSpace=wrap;rectStyle=rounded;size=10;html=1;container=1;expand=0;collapsible=0;taskMarker=abstract;" parent="1" vertex="1">
          <mxGeometry x="354" y="95" width="120" height="80" as="geometry" />
        </mxCell>
        <mxCell id="N1LNzaaKZzpykQplVJVi-5" style="edgeStyle=orthogonalEdgeStyle;rounded=0;orthogonalLoop=1;jettySize=auto;html=1;entryX=0;entryY=0.5;entryDx=0;entryDy=0;entryPerimeter=0;" parent="1" source="N1LNzaaKZzpykQplVJVi-2" target="N1LNzaaKZzpykQplVJVi-4" edge="1">
          <mxGeometry relative="1" as="geometry" />
        </mxCell>
        <mxCell id="63c5QIzw94qShJxjwjrr-4" style="edgeStyle=orthogonalEdgeStyle;rounded=0;orthogonalLoop=1;jettySize=auto;html=1;" edge="1" parent="1" source="63c5QIzw94qShJxjwjrr-1" target="63c5QIzw94qShJxjwjrr-3">
          <mxGeometry relative="1" as="geometry" />
        </mxCell>
        <mxCell id="63c5QIzw94qShJxjwjrr-11" value="Yes" style="edgeLabel;html=1;align=center;verticalAlign=middle;resizable=0;points=[];" vertex="1" connectable="0" parent="63c5QIzw94qShJxjwjrr-4">
          <mxGeometry x="-0.1542" y="1" relative="1" as="geometry">
            <mxPoint as="offset" />
          </mxGeometry>
        </mxCell>
        <mxCell id="63c5QIzw94qShJxjwjrr-6" style="edgeStyle=orthogonalEdgeStyle;rounded=0;orthogonalLoop=1;jettySize=auto;html=1;entryX=0;entryY=0.5;entryDx=0;entryDy=0;entryPerimeter=0;" edge="1" parent="1" source="63c5QIzw94qShJxjwjrr-1" target="63c5QIzw94qShJxjwjrr-5">
          <mxGeometry relative="1" as="geometry">
            <mxPoint x="575" y="50" as="targetPoint" />
            <Array as="points">
              <mxPoint x="575" y="55" />
            </Array>
          </mxGeometry>
        </mxCell>
        <mxCell id="63c5QIzw94qShJxjwjrr-7" value="No" style="edgeLabel;html=1;align=center;verticalAlign=middle;resizable=0;points=[];" vertex="1" connectable="0" parent="63c5QIzw94qShJxjwjrr-6">
          <mxGeometry x="-0.3933" y="1" relative="1" as="geometry">
            <mxPoint as="offset" />
          </mxGeometry>
        </mxCell>
        <mxCell id="63c5QIzw94qShJxjwjrr-1" value="Goods in Stock?" style="points=[[0.25,0.25,0],[0.5,0,0],[0.75,0.25,0],[1,0.5,0],[0.75,0.75,0],[0.5,1,0],[0.25,0.75,0],[0,0.5,0]];shape=mxgraph.bpmn.gateway2;html=1;verticalLabelPosition=bottom;labelBackgroundColor=#ffffff;verticalAlign=top;align=center;perimeter=rhombusPerimeter;outlineConnect=0;outline=none;symbol=none;" vertex="1" parent="1">
          <mxGeometry x="550" y="110" width="50" height="50" as="geometry" />
        </mxCell>
        <mxCell id="63c5QIzw94qShJxjwjrr-10" style="edgeStyle=orthogonalEdgeStyle;rounded=0;orthogonalLoop=1;jettySize=auto;html=1;" edge="1" parent="1" source="63c5QIzw94qShJxjwjrr-3" target="63c5QIzw94qShJxjwjrr-9">
          <mxGeometry relative="1" as="geometry" />
        </mxCell>
        <mxCell id="63c5QIzw94qShJxjwjrr-3" value="" style="points=[[0.25,0.25,0],[0.5,0,0],[0.75,0.25,0],[1,0.5,0],[0.75,0.75,0],[0.5,1,0],[0.25,0.75,0],[0,0.5,0]];shape=mxgraph.bpmn.gateway2;html=1;verticalLabelPosition=bottom;labelBackgroundColor=#ffffff;verticalAlign=top;align=center;perimeter=rhombusPerimeter;outlineConnect=0;outline=none;symbol=none;" vertex="1" parent="1">
          <mxGeometry x="760" y="110" width="50" height="50" as="geometry" />
        </mxCell>
        <mxCell id="63c5QIzw94qShJxjwjrr-8" style="edgeStyle=orthogonalEdgeStyle;rounded=0;orthogonalLoop=1;jettySize=auto;html=1;" edge="1" parent="1" source="63c5QIzw94qShJxjwjrr-5" target="63c5QIzw94qShJxjwjrr-3">
          <mxGeometry relative="1" as="geometry" />
        </mxCell>
        <mxCell id="63c5QIzw94qShJxjwjrr-5" value="Check Raw Material Availability." style="points=[[0.25,0,0],[0.5,0,0],[0.75,0,0],[1,0.25,0],[1,0.5,0],[1,0.75,0],[0.75,1,0],[0.5,1,0],[0.25,1,0],[0,0.75,0],[0,0.5,0],[0,0.25,0]];shape=mxgraph.bpmn.task;whiteSpace=wrap;rectStyle=rounded;size=10;html=1;container=1;expand=0;collapsible=0;taskMarker=abstract;" vertex="1" parent="1">
          <mxGeometry x="620" y="15" width="120" height="80" as="geometry" />
        </mxCell>
        <mxCell id="63c5QIzw94qShJxjwjrr-12" style="edgeStyle=orthogonalEdgeStyle;rounded=0;orthogonalLoop=1;jettySize=auto;html=1;" edge="1" parent="1" source="63c5QIzw94qShJxjwjrr-9">
          <mxGeometry relative="1" as="geometry">
            <mxPoint x="940" y="250" as="targetPoint" />
          </mxGeometry>
        </mxCell>
        <mxCell id="63c5QIzw94qShJxjwjrr-9" value="Retrieve Goods from Warehouse." style="points=[[0.25,0,0],[0.5,0,0],[0.75,0,0],[1,0.25,0],[1,0.5,0],[1,0.75,0],[0.75,1,0],[0.5,1,0],[0.25,1,0],[0,0.75,0],[0,0.5,0],[0,0.25,0]];shape=mxgraph.bpmn.task;whiteSpace=wrap;rectStyle=rounded;size=10;html=1;container=1;expand=0;collapsible=0;taskMarker=abstract;" vertex="1" parent="1">
          <mxGeometry x="880" y="95" width="120" height="80" as="geometry" />
        </mxCell>
        <mxCell id="63c5QIzw94qShJxjwjrr-13" value="Check Raw Material Availability" style="points=[[0.25,0,0],[0.5,0,0],[0.75,0,0],[1,0.25,0],[1,0.5,0],[1,0.75,0],[0.75,1,0],[0.5,1,0],[0.25,1,0],[0,0.75,0],[0,0.5,0],[0,0.25,0]];shape=mxgraph.bpmn.task;whiteSpace=wrap;rectStyle=rounded;size=10;html=1;container=1;expand=0;collapsible=0;taskMarker=abstract;" vertex="1" parent="1">
          <mxGeometry x="880" y="250" width="120" height="80" as="geometry" />
        </mxCell>
        <mxCell id="63c5QIzw94qShJxjwjrr-17" style="edgeStyle=orthogonalEdgeStyle;rounded=0;orthogonalLoop=1;jettySize=auto;html=1;" edge="1" parent="1" source="63c5QIzw94qShJxjwjrr-14" target="63c5QIzw94qShJxjwjrr-16">
          <mxGeometry relative="1" as="geometry" />
        </mxCell>
        <mxCell id="63c5QIzw94qShJxjwjrr-18" value="Yes" style="edgeLabel;html=1;align=center;verticalAlign=middle;resizable=0;points=[];" vertex="1" connectable="0" parent="63c5QIzw94qShJxjwjrr-17">
          <mxGeometry x="-0.0958" relative="1" as="geometry">
            <mxPoint x="-8" as="offset" />
          </mxGeometry>
        </mxCell>
        <mxCell id="63c5QIzw94qShJxjwjrr-20" style="edgeStyle=orthogonalEdgeStyle;rounded=0;orthogonalLoop=1;jettySize=auto;html=1;" edge="1" parent="1" source="63c5QIzw94qShJxjwjrr-14" target="63c5QIzw94qShJxjwjrr-19">
          <mxGeometry relative="1" as="geometry">
            <Array as="points">
              <mxPoint x="785" y="410" />
            </Array>
          </mxGeometry>
        </mxCell>
        <mxCell id="63c5QIzw94qShJxjwjrr-21" value="No" style="edgeLabel;html=1;align=center;verticalAlign=middle;resizable=0;points=[];" vertex="1" connectable="0" parent="63c5QIzw94qShJxjwjrr-20">
          <mxGeometry x="-0.3619" y="2" relative="1" as="geometry">
            <mxPoint as="offset" />
          </mxGeometry>
        </mxCell>
        <mxCell id="63c5QIzw94qShJxjwjrr-14" value="Raw Materials Available?" style="points=[[0.25,0.25,0],[0.5,0,0],[0.75,0.25,0],[1,0.5,0],[0.75,0.75,0],[0.5,1,0],[0.25,0.75,0],[0,0.5,0]];shape=mxgraph.bpmn.gateway2;html=1;verticalLabelPosition=bottom;labelBackgroundColor=#ffffff;verticalAlign=top;align=center;perimeter=rhombusPerimeter;outlineConnect=0;outline=none;symbol=none;" vertex="1" parent="1">
          <mxGeometry x="760" y="265" width="50" height="50" as="geometry" />
        </mxCell>
        <mxCell id="63c5QIzw94qShJxjwjrr-15" style="edgeStyle=orthogonalEdgeStyle;rounded=0;orthogonalLoop=1;jettySize=auto;html=1;entryX=1;entryY=0.5;entryDx=0;entryDy=0;entryPerimeter=0;" edge="1" parent="1" source="63c5QIzw94qShJxjwjrr-13" target="63c5QIzw94qShJxjwjrr-14">
          <mxGeometry relative="1" as="geometry" />
        </mxCell>
        <mxCell id="63c5QIzw94qShJxjwjrr-16" value="" style="points=[[0.25,0.25,0],[0.5,0,0],[0.75,0.25,0],[1,0.5,0],[0.75,0.75,0],[0.5,1,0],[0.25,0.75,0],[0,0.5,0]];shape=mxgraph.bpmn.gateway2;html=1;verticalLabelPosition=bottom;labelBackgroundColor=#ffffff;verticalAlign=top;align=center;perimeter=rhombusPerimeter;outlineConnect=0;outline=none;symbol=none;" vertex="1" parent="1">
          <mxGeometry x="550" y="265" width="50" height="50" as="geometry" />
        </mxCell>
        <mxCell id="63c5QIzw94qShJxjwjrr-19" value="Order Raw Materials from Suppliers." style="points=[[0.25,0,0],[0.5,0,0],[0.75,0,0],[1,0.25,0],[1,0.5,0],[1,0.75,0],[0.75,1,0],[0.5,1,0],[0.25,1,0],[0,0.75,0],[0,0.5,0],[0,0.25,0]];shape=mxgraph.bpmn.task;whiteSpace=wrap;rectStyle=rounded;size=10;html=1;container=1;expand=0;collapsible=0;taskMarker=abstract;" vertex="1" parent="1">
          <mxGeometry x="620" y="370" width="120" height="80" as="geometry" />
        </mxCell>
        <mxCell id="63c5QIzw94qShJxjwjrr-22" style="edgeStyle=orthogonalEdgeStyle;rounded=0;orthogonalLoop=1;jettySize=auto;html=1;entryX=0.5;entryY=1;entryDx=0;entryDy=0;entryPerimeter=0;" edge="1" parent="1" source="63c5QIzw94qShJxjwjrr-19" target="63c5QIzw94qShJxjwjrr-16">
          <mxGeometry relative="1" as="geometry" />
        </mxCell>
        <mxCell id="63c5QIzw94qShJxjwjrr-26" style="edgeStyle=orthogonalEdgeStyle;rounded=0;orthogonalLoop=1;jettySize=auto;html=1;" edge="1" parent="1" source="63c5QIzw94qShJxjwjrr-23" target="63c5QIzw94qShJxjwjrr-25">
          <mxGeometry relative="1" as="geometry" />
        </mxCell>
        <mxCell id="63c5QIzw94qShJxjwjrr-23" value="Assemble Finished Products." style="points=[[0.25,0,0],[0.5,0,0],[0.75,0,0],[1,0.25,0],[1,0.5,0],[1,0.75,0],[0.75,1,0],[0.5,1,0],[0.25,1,0],[0,0.75,0],[0,0.5,0],[0,0.25,0]];shape=mxgraph.bpmn.task;whiteSpace=wrap;rectStyle=rounded;size=10;html=1;container=1;expand=0;collapsible=0;taskMarker=abstract;" vertex="1" parent="1">
          <mxGeometry x="354" y="250" width="120" height="80" as="geometry" />
        </mxCell>
        <mxCell id="63c5QIzw94qShJxjwjrr-24" style="edgeStyle=orthogonalEdgeStyle;rounded=0;orthogonalLoop=1;jettySize=auto;html=1;entryX=1;entryY=0.5;entryDx=0;entryDy=0;entryPerimeter=0;" edge="1" parent="1" source="63c5QIzw94qShJxjwjrr-16" target="63c5QIzw94qShJxjwjrr-23">
          <mxGeometry relative="1" as="geometry" />
        </mxCell>
        <mxCell id="63c5QIzw94qShJxjwjrr-28" style="edgeStyle=orthogonalEdgeStyle;rounded=0;orthogonalLoop=1;jettySize=auto;html=1;" edge="1" parent="1" source="63c5QIzw94qShJxjwjrr-25" target="63c5QIzw94qShJxjwjrr-27">
          <mxGeometry relative="1" as="geometry" />
        </mxCell>
        <mxCell id="63c5QIzw94qShJxjwjrr-25" value="Order Raw Materials" style="points=[[0.25,0,0],[0.5,0,0],[0.75,0,0],[1,0.25,0],[1,0.5,0],[1,0.75,0],[0.75,1,0],[0.5,1,0],[0.25,1,0],[0,0.75,0],[0,0.5,0],[0,0.25,0]];shape=mxgraph.bpmn.task;whiteSpace=wrap;rectStyle=rounded;size=10;html=1;container=1;expand=0;collapsible=0;taskMarker=abstract;" vertex="1" parent="1">
          <mxGeometry x="160" y="250" width="120" height="80" as="geometry" />
        </mxCell>
        <mxCell id="63c5QIzw94qShJxjwjrr-30" style="edgeStyle=orthogonalEdgeStyle;rounded=0;orthogonalLoop=1;jettySize=auto;html=1;" edge="1" parent="1" source="63c5QIzw94qShJxjwjrr-27" target="63c5QIzw94qShJxjwjrr-29">
          <mxGeometry relative="1" as="geometry" />
        </mxCell>
        <mxCell id="63c5QIzw94qShJxjwjrr-27" value="Choose&amp;nbsp;one or both &lt;br/&gt;suppliers&amp;nbsp;" style="points=[[0.25,0.25,0],[0.5,0,0],[0.75,0.25,0],[1,0.5,0],[0.75,0.75,0],[0.5,1,0],[0.25,0.75,0],[0,0.5,0]];shape=mxgraph.bpmn.gateway2;html=1;verticalLabelPosition=bottom;labelBackgroundColor=#ffffff;verticalAlign=top;align=center;perimeter=rhombusPerimeter;outlineConnect=0;outline=none;symbol=none;" vertex="1" parent="1">
          <mxGeometry x="195" y="490" width="50" height="50" as="geometry" />
        </mxCell>
        <mxCell id="63c5QIzw94qShJxjwjrr-32" style="edgeStyle=orthogonalEdgeStyle;rounded=0;orthogonalLoop=1;jettySize=auto;html=1;" edge="1" parent="1" source="63c5QIzw94qShJxjwjrr-29" target="63c5QIzw94qShJxjwjrr-31">
          <mxGeometry relative="1" as="geometry" />
        </mxCell>
        <mxCell id="63c5QIzw94qShJxjwjrr-29" value="Assemble Finished Products" style="points=[[0.25,0,0],[0.5,0,0],[0.75,0,0],[1,0.25,0],[1,0.5,0],[1,0.75,0],[0.75,1,0],[0.5,1,0],[0.25,1,0],[0,0.75,0],[0,0.5,0],[0,0.25,0]];shape=mxgraph.bpmn.task;whiteSpace=wrap;rectStyle=rounded;size=10;html=1;container=1;expand=0;collapsible=0;taskMarker=abstract;" vertex="1" parent="1">
          <mxGeometry x="360" y="475" width="120" height="80" as="geometry" />
        </mxCell>
        <mxCell id="63c5QIzw94qShJxjwjrr-34" style="edgeStyle=orthogonalEdgeStyle;rounded=0;orthogonalLoop=1;jettySize=auto;html=1;" edge="1" parent="1" source="63c5QIzw94qShJxjwjrr-31" target="63c5QIzw94qShJxjwjrr-33">
          <mxGeometry relative="1" as="geometry" />
        </mxCell>
        <mxCell id="63c5QIzw94qShJxjwjrr-31" value="Confirm Order" style="points=[[0.25,0,0],[0.5,0,0],[0.75,0,0],[1,0.25,0],[1,0.5,0],[1,0.75,0],[0.75,1,0],[0.5,1,0],[0.25,1,0],[0,0.75,0],[0,0.5,0],[0,0.25,0]];shape=mxgraph.bpmn.task;whiteSpace=wrap;rectStyle=rounded;size=10;html=1;container=1;expand=0;collapsible=0;taskMarker=abstract;" vertex="1" parent="1">
          <mxGeometry x="550" y="475" width="120" height="80" as="geometry" />
        </mxCell>
        <mxCell id="63c5QIzw94qShJxjwjrr-36" style="edgeStyle=orthogonalEdgeStyle;rounded=0;orthogonalLoop=1;jettySize=auto;html=1;" edge="1" parent="1" source="63c5QIzw94qShJxjwjrr-33" target="63c5QIzw94qShJxjwjrr-35">
          <mxGeometry relative="1" as="geometry" />
        </mxCell>
        <mxCell id="63c5QIzw94qShJxjwjrr-33" value="Ship Goods" style="points=[[0.25,0,0],[0.5,0,0],[0.75,0,0],[1,0.25,0],[1,0.5,0],[1,0.75,0],[0.75,1,0],[0.5,1,0],[0.25,1,0],[0,0.75,0],[0,0.5,0],[0,0.25,0]];shape=mxgraph.bpmn.task;whiteSpace=wrap;rectStyle=rounded;size=10;html=1;container=1;expand=0;collapsible=0;taskMarker=abstract;" vertex="1" parent="1">
          <mxGeometry x="740" y="475" width="120" height="80" as="geometry" />
        </mxCell>
        <mxCell id="63c5QIzw94qShJxjwjrr-39" style="edgeStyle=orthogonalEdgeStyle;rounded=0;orthogonalLoop=1;jettySize=auto;html=1;" edge="1" parent="1" source="63c5QIzw94qShJxjwjrr-35" target="63c5QIzw94qShJxjwjrr-38">
          <mxGeometry relative="1" as="geometry" />
        </mxCell>
        <mxCell id="63c5QIzw94qShJxjwjrr-35" value="Issue Invoice" style="points=[[0.25,0,0],[0.5,0,0],[0.75,0,0],[1,0.25,0],[1,0.5,0],[1,0.75,0],[0.75,1,0],[0.5,1,0],[0.25,1,0],[0,0.75,0],[0,0.5,0],[0,0.25,0]];shape=mxgraph.bpmn.task;whiteSpace=wrap;rectStyle=rounded;size=10;html=1;container=1;expand=0;collapsible=0;taskMarker=abstract;" vertex="1" parent="1">
          <mxGeometry x="930" y="475" width="120" height="80" as="geometry" />
        </mxCell>
        <mxCell id="63c5QIzw94qShJxjwjrr-41" style="edgeStyle=orthogonalEdgeStyle;rounded=0;orthogonalLoop=1;jettySize=auto;html=1;" edge="1" parent="1" source="63c5QIzw94qShJxjwjrr-38" target="63c5QIzw94qShJxjwjrr-40">
          <mxGeometry relative="1" as="geometry" />
        </mxCell>
        <mxCell id="63c5QIzw94qShJxjwjrr-38" value="Receive Payment" style="points=[[0.25,0,0],[0.5,0,0],[0.75,0,0],[1,0.25,0],[1,0.5,0],[1,0.75,0],[0.75,1,0],[0.5,1,0],[0.25,1,0],[0,0.75,0],[0,0.5,0],[0,0.25,0]];shape=mxgraph.bpmn.task;whiteSpace=wrap;rectStyle=rounded;size=10;html=1;container=1;expand=0;collapsible=0;taskMarker=abstract;" vertex="1" parent="1">
          <mxGeometry x="930" y="620" width="120" height="80" as="geometry" />
        </mxCell>
        <mxCell id="63c5QIzw94qShJxjwjrr-43" style="edgeStyle=orthogonalEdgeStyle;rounded=0;orthogonalLoop=1;jettySize=auto;html=1;" edge="1" parent="1" source="63c5QIzw94qShJxjwjrr-40" target="63c5QIzw94qShJxjwjrr-42">
          <mxGeometry relative="1" as="geometry" />
        </mxCell>
        <mxCell id="63c5QIzw94qShJxjwjrr-40" value="Archive Order" style="points=[[0.25,0,0],[0.5,0,0],[0.75,0,0],[1,0.25,0],[1,0.5,0],[1,0.75,0],[0.75,1,0],[0.5,1,0],[0.25,1,0],[0,0.75,0],[0,0.5,0],[0,0.25,0]];shape=mxgraph.bpmn.task;whiteSpace=wrap;rectStyle=rounded;size=10;html=1;container=1;expand=0;collapsible=0;taskMarker=abstract;" vertex="1" parent="1">
          <mxGeometry x="740" y="620" width="120" height="80" as="geometry" />
        </mxCell>
        <mxCell id="63c5QIzw94qShJxjwjrr-42" value="" style="points=[[0.145,0.145,0],[0.5,0,0],[0.855,0.145,0],[1,0.5,0],[0.855,0.855,0],[0.5,1,0],[0.145,0.855,0],[0,0.5,0]];shape=mxgraph.bpmn.event;html=1;verticalLabelPosition=bottom;labelBackgroundColor=#ffffff;verticalAlign=top;align=center;perimeter=ellipsePerimeter;outlineConnect=0;aspect=fixed;outline=end;symbol=terminate2;" vertex="1" parent="1">
          <mxGeometry x="585" y="635" width="50" height="50" as="geometry" />
        </mxCell>
      </root>
    </mxGraphModel>
  </diagram>
</mxfile>
